<svg xmlns="http://www.w3.org/2000/svg" xml:space="preserve" style="enable-background:new 0 0 16 16" viewBox="0 0 16 16"><path d="m13.8 6-3.7-.5-1.6-3.2c-.2-.4-.6-.5-1-.3-.1 0-.2.1-.3.3L5.6 5.5 1.9 6c-.1 0-.3.1-.4.2-.3.4-.2.8 0 1l2.6 2.5-.6 3.5c0 .2 0 .3.1.5.2.3.6.4.9.3l3.3-1.7 3.3 1.7c.1.1.3.1.5.1.4-.1.6-.4.5-.8l-.6-3.5 2.6-2.5c.1-.1.2-.3.2-.4.1-.5-.1-.8-.5-.9zm-2.9 3.2c-.2.2-.3.4-.2.6l.6 3.3-3.1-1.6h-.1c-.2-.1-.4-.1-.6 0l-3.1 1.6.6-3.3c0-.2 0-.5-.2-.6L2.3 6.8l3.4-.5c.3 0 .5-.1.6-.3l1.5-3.1L9.4 6c.1.2.3.3.5.3l3.4.5-2.4 2.4z"/></svg>