<svg viewBox="0 0 32 32" id="svg-user" xmlns="http://www.w3.org/2000/svg"><title>uniE364</title><path d="M21.481 16.593c4.741 1.778 8.593 5.926 10.667 11.556l-2.815 1.037c-2.222-6.37-7.407-10.519-13.185-10.519S5.185 22.815 2.963 29.186L.148 28.149c1.926-5.63 5.778-9.778 10.518-11.556-2.222-1.778-3.704-4.444-3.704-7.407 0-5.037 4-9.185 9.037-9.185s9.185 4.148 9.185 9.185c0 2.963-1.481 5.63-3.704 7.407zM16 2.963c-3.407 0-5.926 2.815-5.926 6.222s2.667 6.222 6.074 6.222c3.259 0 6.074-2.815 6.074-6.222S19.407 2.963 16 2.963z"></path></svg>